<svg xmlns="http://www.w3.org/2000/svg" width="600" height="123" viewBox="0 0 600 123"><g fill="none" fill-rule="evenodd"><path fill="#E41A15" d="M1 0h599v122H1z"/><path fill="#FFF" d="M84.194 68.106L49.68 120.909 2.86 48.165C-1.506 41.385.442 32.312 7.201 27.94a14.47 14.47 0 0 1 7.878-2.334c4.978 0 9.56 2.5 12.255 6.688l22.379 34.87 22.239-34.802.1-.14c.205-.312.421-.599.617-.857l.284-.38c.147-.18.316-.365.525-.592l.227-.25c.09-.102.16-.18.229-.248.089-.09.185-.175.314-.29l.316-.291c.176-.162.323-.297.47-.417.064-.05.338-.254.399-.298.288-.218.542-.41.849-.613l.13-.084.247-.143c.267-.162.53-.322.813-.47.106-.057.212-.107.317-.157l.278-.13c.219-.105.437-.208.66-.298.221-.092.447-.17.746-.276.235-.082.393-.137.553-.185.273-.083.544-.152.847-.225a13.5 13.5 0 0 1 .51-.117c.272-.054.548-.097.88-.143.43-.063.862-.103 1.296-.12.448-.023.898-.023 1.346 0a15.597 15.597 0 0 1 2.179.264c.177.036.358.08.543.125.273.065.54.132.813.216.17.05.33.106.496.164.357.126.583.205.81.298.184.075.362.158.598.27l.253.12c.133.061.265.123.4.195.28.147.546.307.801.463.045.028.135.078.247.141l.122.08c.316.21.565.394.875.628 0 0 .337.252.378.287.18.144.343.295.538.475l.33.3c.107.097.173.156.239.223.093.093.179.189.273.297l.253.28c.187.2.334.361.464.523l.302.405c.225.298.41.545.62.86l.062.085 22.285 34.827 22.346-34.868a14.524 14.524 0 0 1 12.257-6.69c2.794 0 5.518.807 7.877 2.334 6.757 4.373 8.707 13.446 4.345 20.226l-46.822 72.747-34.596-52.806.001-.001zM217.726 24.57c-27.935 0-50.662 21.908-50.662 48.837 0 26.938 22.727 48.854 50.662 48.854s50.662-21.916 50.662-48.854c0-26.929-22.727-48.836-50.662-48.836m0 72.851c-12.404 0-22.496-10.773-22.496-24.015 0-13.235 10.092-24.002 22.496-24.002 12.41 0 22.507 10.767 22.507 24.002 0 13.242-10.096 24.015-22.507 24.015m58.969-37.01v59.856h29.357V58.525c0-2.51 1.852-6.49 6.822-6.49.613 0 5.142-.008 9.383-.016l9.676-.012V26.54h-20.731c-16.664 0-34.507 13.61-34.507 33.872m105.311-8.24c7.087-.012 12.852-5.77 12.852-12.837 0-7.055-5.767-12.795-12.856-12.795h-13.667l-.005-12.704c0-7.556-6.177-13.704-13.771-13.704-7.593 0-13.77 6.148-13.77 13.704V88.89l.043 2.003h.037c1.18 19.29 17.103 29.374 32.5 29.374h20.729V94.825L392.1 94.8c-.943-.012-16.134-.035-17.052-.035-5.106 0-6.826-5.064-6.826-7.374V52.186c3.837-.014 8.746-.014 13.784-.014m206.542-10.115c-6.34-7.97-18.005-17.47-37.566-17.47-19.55 0-31.21 9.5-37.548 17.47-8.263 10.387-11.207 22.63-11.207 30.622v47.588h29.395V73.642c0-10.648 6.65-21.44 19.356-21.467 12.733.028 19.394 10.82 19.394 21.467v46.625h29.383V72.679c0-7.995-2.944-20.238-11.207-30.622M445.836 24.57c-27.203 0-49.335 21.908-49.335 48.836 0 26.938 22.132 48.853 49.335 48.853 19.029 0 36.564-11.051 44.676-28.154l1.364-2.876h-27.963l-.602.67c-3.823 4.235-10.682 6.972-17.475 6.972-10.411 0-18.268-6.207-21.242-16.681h69.8l.253-1.721c.344-2.328.52-4.704.52-7.063 0-26.928-22.13-48.835-49.33-48.835l-.001-.001zm-20.492 36.983c2.46-8.187 10.52-13.596 20.492-13.596 9.882 0 18.105 5.528 20.489 13.596H425.344z"/></g></svg>